<?xml version="1.0" encoding="utf-8"?>
<!-- Generator: Avocode 2.4.5 - http://avocode.com -->
<svg height="45" width="166" xmlns:xlink="http://www.w3.org/1999/xlink" xmlns="http://www.w3.org/2000/svg" viewBox="0 0 166 45">
    <path fill="#f98f31" fill-rule="evenodd" d="M 2 45 C 2 45 0 45 0 45 C 0 45 0 19 0 19 C 0 19 2 19 2 19 C 2 19 2 43 2 43 C 2 43 164 43 164 43 C 164 43 164 45 164 45 C 164 45 2 45 2 45 Z" />
    <path fill="#f98f31" fill-rule="evenodd" d="M 164 26 C 164 26 164 2 164 2 C 164 2 1 2 1 2 C 1 2 1 0 1 0 C 1 0 164 0 164 0 C 164 0 166 0 166 0 C 166 0 166 26 166 26 C 166 26 164 26 164 26 Z" />
    <text font-weight="500" font-size="26" font-family="FuturaBT" fill="#ffffff" y="32" x="21">
        <tspan>astoria</tspan>
    </text>
</svg>