<?xml version="1.0" encoding="utf-8"?>
<!-- Generator: Avocode 2.4.5 - http://avocode.com -->
<svg height="14" width="23" xmlns:xlink="http://www.w3.org/1999/xlink" xmlns="http://www.w3.org/2000/svg" viewBox="0 0 23 14">
    <path fill="#ffffff" fill-rule="evenodd" d="M 0 14 C 0 14 0 11.99 0 11.99 C 0 11.99 23 11.99 23 11.99 C 23 11.99 23 14 23 14 C 23 14 0 14 0 14 Z M 0 5.99 C 0 5.99 23 5.99 23 5.99 C 23 5.99 23 7.99 23 7.99 C 23 7.99 0 7.99 0 7.99 C 0 7.99 0 5.99 0 5.99 Z M 0 -0.01 C 0 -0.01 23 -0.01 23 -0.01 C 23 -0.01 23 1.99 23 1.99 C 23 1.99 0 1.99 0 1.99 C 0 1.99 0 -0.01 0 -0.01 Z" />
</svg>